<svg width="42" height="43" viewBox="0 0 42 43" fill="none" xmlns="http://www.w3.org/2000/svg">
<path d="M28 7.27197H31.5C32.4283 7.27197 33.3185 7.64072 33.9749 8.2971C34.6313 8.95348 35 9.84371 35 10.772V35.272C35 36.2002 34.6313 37.0905 33.9749 37.7468C33.3185 38.4032 32.4283 38.772 31.5 38.772H10.5C9.57174 38.772 8.6815 38.4032 8.02513 37.7468C7.36875 37.0905 7 36.2002 7 35.272V10.772C7 9.84371 7.36875 8.95348 8.02513 8.2971C8.6815 7.64072 9.57174 7.27197 10.5 7.27197H14" stroke="#72BCEA" stroke-width="3" stroke-linecap="round" stroke-linejoin="round"/>
<path d="M26.25 3.77197H15.75C14.7835 3.77197 14 4.55547 14 5.52197V9.02197C14 9.98847 14.7835 10.772 15.75 10.772H26.25C27.2165 10.772 28 9.98847 28 9.02197V5.52197C28 4.55547 27.2165 3.77197 26.25 3.77197Z" stroke="#72BCEA" stroke-width="3" stroke-linecap="round" stroke-linejoin="round"/>
</svg>
