<svg width="42" height="42" viewBox="0 0 42 42" fill="none" xmlns="http://www.w3.org/2000/svg">
<path d="M31.5 14C34.3995 14 36.75 11.6495 36.75 8.75C36.75 5.85051 34.3995 3.5 31.5 3.5C28.6005 3.5 26.25 5.85051 26.25 8.75C26.25 11.6495 28.6005 14 31.5 14Z" stroke="#72BCEA" stroke-width="3" stroke-linecap="round" stroke-linejoin="round"/>
<path d="M10.5 26.25C13.3995 26.25 15.75 23.8995 15.75 21C15.75 18.1005 13.3995 15.75 10.5 15.75C7.60051 15.75 5.25 18.1005 5.25 21C5.25 23.8995 7.60051 26.25 10.5 26.25Z" stroke="#72BCEA" stroke-width="3" stroke-linecap="round" stroke-linejoin="round"/>
<path d="M31.5 38.5C34.3995 38.5 36.75 36.1495 36.75 33.25C36.75 30.3505 34.3995 28 31.5 28C28.6005 28 26.25 30.3505 26.25 33.25C26.25 36.1495 28.6005 38.5 31.5 38.5Z" stroke="#72BCEA" stroke-width="3" stroke-linecap="round" stroke-linejoin="round"/>
<path d="M15.0325 23.6425L26.985 30.6075" stroke="#72BCEA" stroke-width="3" stroke-linecap="round" stroke-linejoin="round"/>
<path d="M26.9675 11.3925L15.0325 18.3575" stroke="#72BCEA" stroke-width="3" stroke-linecap="round" stroke-linejoin="round"/>
</svg>
