<svg width="21" height="23" viewBox="0 0 21 23" fill="none" xmlns="http://www.w3.org/2000/svg">
<g clip-path="url(#clip0)">
<path d="M15.1149 0.00459042L12.5077 0C9.57865 0 7.68576 2.1311 7.68576 5.42955V7.93294H5.06437C4.83785 7.93294 4.65442 8.13446 4.65442 8.38303V12.0102C4.65442 12.2587 4.83806 12.46 5.06437 12.46H7.68576V21.6124C7.68576 21.861 7.86919 22.0623 8.09571 22.0623H11.5159C11.7424 22.0623 11.9258 21.8608 11.9258 21.6124V12.46H14.9908C15.2174 12.46 15.4008 12.2587 15.4008 12.0102L15.402 8.38303C15.402 8.26368 15.3588 8.14938 15.282 8.06492C15.2052 7.98045 15.1006 7.93294 14.9919 7.93294H11.9258V5.81079C11.9258 4.7908 12.1473 4.273 13.3581 4.273L15.1145 4.27231C15.3408 4.27231 15.5242 4.07079 15.5242 3.82245V0.454452C15.5242 0.20634 15.341 0.00504947 15.1149 0.00459042Z" fill="#757575"/>
</g>
<defs>
<clipPath id="clip0">
<rect width="20.1052" height="22.0623" fill="white" transform="translate(0.0373535)"/>
</clipPath>
</defs>
</svg>
