<svg width="23" height="23" viewBox="0 0 23 23" fill="none" xmlns="http://www.w3.org/2000/svg">
<g clip-path="url(#clip0)">
<path d="M15.7969 0H7.18043C3.2154 0 0 3.21599 0 7.18175V15.7998C0 19.7656 3.2154 22.9816 7.18043 22.9816H15.7969C19.762 22.9816 22.9774 19.7656 22.9774 15.7998V7.18175C22.9774 3.21599 19.762 0 15.7969 0ZM20.8232 15.7998C20.8232 18.572 18.5686 20.8271 15.7969 20.8271H7.18043C4.40878 20.8271 2.15413 18.572 2.15413 15.7998V7.18175C2.15413 4.40959 4.40878 2.15452 7.18043 2.15452H15.7969C18.5686 2.15452 20.8232 4.40959 20.8232 7.18175V15.7998Z" fill="#757575"/>
<path d="M11.4879 5.74512C8.31556 5.74512 5.74353 8.31762 5.74353 11.4905C5.74353 14.6634 8.31556 17.2359 11.4879 17.2359C14.6602 17.2359 17.2322 14.6634 17.2322 11.4905C17.2322 8.31762 14.6602 5.74512 11.4879 5.74512ZM11.4879 15.0814C9.50895 15.0814 7.89766 13.4698 7.89766 11.4905C7.89766 9.50979 9.50895 7.89964 11.4879 7.89964C13.4668 7.89964 15.0781 9.50979 15.0781 11.4905C15.0781 13.4698 13.4668 15.0814 11.4879 15.0814Z" fill="#757575"/>
<path d="M17.6639 6.07973C18.0866 6.07973 18.4293 5.73697 18.4293 5.31416C18.4293 4.89134 18.0866 4.54858 17.6639 4.54858C17.2411 4.54858 16.8984 4.89134 16.8984 5.31416C16.8984 5.73697 17.2411 6.07973 17.6639 6.07973Z" fill="#757575"/>
</g>
<defs>
<clipPath id="clip0">
<rect width="22.9774" height="22.9816" fill="white"/>
</clipPath>
</defs>
</svg>
