<svg width="25" height="23" viewBox="0 0 25 23" fill="none" xmlns="http://www.w3.org/2000/svg">
<g clip-path="url(#clip0)">
<path d="M24.0095 4.3652C23.1194 4.74009 22.171 4.98858 21.1822 5.10923C22.1994 4.52608 22.9758 3.60968 23.3408 2.50513C22.3924 3.04807 21.3452 3.43158 20.2293 3.64559C19.3287 2.72489 18.0452 2.15466 16.6451 2.15466C13.9285 2.15466 11.7414 4.27184 11.7414 6.86732C11.7414 7.24078 11.7743 7.59986 11.8551 7.94171C7.77572 7.75068 4.16606 5.87337 1.74117 3.0136C1.31782 3.71885 1.0695 4.52608 1.0695 5.39507C1.0695 7.02676 1.94461 8.47316 3.24906 9.31055C2.46071 9.29619 1.68731 9.07643 1.0321 8.73027C1.0321 8.74463 1.0321 8.76331 1.0321 8.78198C1.0321 11.0715 2.73296 12.9732 4.96339 13.4113C4.56397 13.5162 4.12866 13.5665 3.67689 13.5665C3.36275 13.5665 3.04561 13.5492 2.74792 13.486C3.38369 15.3518 5.18778 16.7236 7.33293 16.7681C5.66348 18.022 3.54375 18.7775 1.24901 18.7775C0.846604 18.7775 0.460655 18.7603 0.074707 18.7129C2.24828 20.0588 4.82427 20.8272 7.6022 20.8272C16.6316 20.8272 21.5681 13.6455 21.5681 7.42032C21.5681 7.21205 21.5607 7.01096 21.5502 6.81131C22.524 6.14771 23.3423 5.31894 24.0095 4.3652Z" fill="#757575"/>
</g>
<defs>
<clipPath id="clip0">
<rect width="23.9348" height="22.9816" fill="white" transform="translate(0.074707)"/>
</clipPath>
</defs>
</svg>
