<svg width="26" height="24" viewBox="0 0 26 24" fill="none" xmlns="http://www.w3.org/2000/svg">
<g clip-path="url(#clip0)">
<path d="M24.9228 17.4476C24.8927 17.3852 24.8646 17.3335 24.8385 17.292C24.4066 16.5452 23.5813 15.6285 22.363 14.5417L22.3373 14.5168L22.3244 14.5046L22.3114 14.4921H22.2983C21.7454 13.986 21.3953 13.6457 21.2486 13.4715C20.9804 13.1396 20.9203 12.8037 21.0669 12.4633C21.1705 12.2062 21.5596 11.6631 22.2333 10.8333C22.5877 10.3936 22.8684 10.0412 23.0757 9.77564C24.5705 7.86743 25.2186 6.64806 25.0198 6.11705L24.9426 5.99296C24.8907 5.91826 24.7568 5.84991 24.541 5.78758C24.3248 5.72539 24.0484 5.7151 23.7113 5.75655L19.9788 5.78131C19.9184 5.76073 19.832 5.76265 19.7196 5.78758C19.6072 5.81251 19.551 5.82502 19.551 5.82502L19.486 5.85619L19.4345 5.89363C19.3913 5.91839 19.3437 5.96193 19.2919 6.02417C19.2402 6.08619 19.1971 6.15898 19.1626 6.24193C18.7562 7.24576 18.2942 8.17907 17.7756 9.04182C17.4559 9.55627 17.1623 10.0021 16.8942 10.3796C16.6264 10.757 16.4018 11.035 16.2204 11.2132C16.0389 11.3916 15.875 11.5346 15.7278 11.6425C15.5809 11.7505 15.4687 11.7962 15.3911 11.7795C15.3132 11.7628 15.2399 11.7462 15.1705 11.7297C15.0496 11.6549 14.9524 11.5533 14.8791 11.4248C14.8054 11.2962 14.7559 11.1344 14.7299 10.9394C14.7042 10.7443 14.6889 10.5765 14.6845 10.4354C14.6805 10.2945 14.6824 10.0952 14.6911 9.83801C14.7001 9.58072 14.7042 9.40664 14.7042 9.31537C14.7042 9.00006 14.7106 8.65787 14.7234 8.28869C14.7365 7.91952 14.7471 7.62701 14.7559 7.41152C14.7647 7.19581 14.7688 6.96759 14.7688 6.727C14.7688 6.4864 14.7535 6.29772 14.7234 6.16077C14.6936 6.02399 14.6479 5.89123 14.5877 5.76252C14.5271 5.63394 14.4384 5.53448 14.322 5.46387C14.2054 5.39335 14.0604 5.33738 13.8878 5.2958C13.4299 5.19629 12.8467 5.14246 12.138 5.13409C10.531 5.11753 9.49846 5.21717 9.04053 5.43288C8.85909 5.52402 8.6949 5.64854 8.54809 5.80606C8.39253 5.98865 8.37083 6.08829 8.48313 6.10467C9.00162 6.17925 9.36868 6.35765 9.58471 6.63969L9.66256 6.78915C9.72312 6.89698 9.78358 7.08789 9.84409 7.36161C9.90451 7.63534 9.9435 7.93813 9.96066 8.26982C10.0038 8.87554 10.0038 9.39404 9.96066 9.82537C9.9174 10.2569 9.87655 10.5928 9.83755 10.8334C9.79856 11.074 9.74028 11.2689 9.66256 11.4182C9.58471 11.5676 9.53292 11.6588 9.50695 11.692C9.48103 11.7251 9.45942 11.746 9.44226 11.7541C9.32996 11.7955 9.21316 11.8165 9.09228 11.8165C8.97121 11.8165 8.82441 11.7584 8.65164 11.6422C8.47891 11.526 8.29965 11.3664 8.11385 11.1631C7.92806 10.9597 7.71852 10.6756 7.48515 10.3106C7.25196 9.94562 7.01001 9.51425 6.75943 9.0165L6.55212 8.65551C6.42252 8.42329 6.24548 8.08514 6.02083 7.64139C5.79604 7.19747 5.59735 6.76806 5.42462 6.35325C5.35558 6.17903 5.25185 6.0464 5.11363 5.95513L5.04876 5.91769C5.00564 5.88456 4.93641 5.84939 4.84145 5.8119C4.74635 5.77446 4.64712 5.74761 4.54334 5.7311L0.992218 5.75585C0.629339 5.75585 0.383122 5.83479 0.253476 5.99244L0.201591 6.06701C0.175671 6.10855 0.162598 6.17489 0.162598 6.2662C0.162598 6.35747 0.188518 6.46949 0.240403 6.60212C0.758802 7.77198 1.32255 8.90021 1.93165 9.98699C2.54074 11.0738 3.07004 11.9492 3.51921 12.6125C3.96848 13.2763 4.42641 13.9027 4.89301 14.4916C5.35962 15.0807 5.66848 15.4582 5.8196 15.624C5.97089 15.7901 6.08974 15.9144 6.17612 15.9973L6.50019 16.2959C6.70755 16.4951 7.01205 16.7336 7.41383 17.0114C7.81571 17.2895 8.26061 17.5632 8.74878 17.833C9.23704 18.1024 9.80505 18.3223 10.4531 18.4923C11.1011 18.6625 11.7318 18.7308 12.3453 18.6979H13.8358C14.1381 18.6728 14.3671 18.5815 14.5228 18.424L14.5743 18.3616C14.609 18.3121 14.6415 18.2352 14.6714 18.1317C14.7017 18.028 14.7168 17.9138 14.7168 17.7895C14.708 17.4328 14.7362 17.1114 14.8009 16.8252C14.8655 16.5391 14.9391 16.3234 15.0215 16.1781C15.1038 16.033 15.1966 15.9105 15.3 15.8112C15.4036 15.7117 15.4774 15.6514 15.5207 15.6307C15.5637 15.6098 15.5981 15.5956 15.624 15.5871C15.8314 15.5208 16.0754 15.585 16.3565 15.7802C16.6373 15.9751 16.9008 16.2159 17.1472 16.502C17.3934 16.7883 17.6893 17.1096 18.0348 17.4663C18.3806 17.8231 18.6829 18.0883 18.942 18.2628L19.2012 18.4121C19.3742 18.5117 19.5989 18.603 19.8754 18.6859C20.1514 18.7688 20.3933 18.7896 20.601 18.7481L23.9187 18.6984C24.2468 18.6984 24.5022 18.6463 24.6833 18.5428C24.8648 18.4391 24.9726 18.3248 25.0074 18.2006C25.042 18.0762 25.0439 17.935 25.0139 17.7772C24.9832 17.6199 24.9529 17.5098 24.9228 17.4476Z" fill="#757575"/>
</g>
<defs>
<clipPath id="clip0">
<rect width="24.8922" height="23.9009" fill="white" transform="translate(0.162598)"/>
</clipPath>
</defs>
</svg>
