<svg width="24" height="21" viewBox="0 0 24 21" fill="none" xmlns="http://www.w3.org/2000/svg">
<g clip-path="url(#clip0)">
<path d="M18.4441 2.95654H5.5707C3.04496 2.95654 0.997437 4.83705 0.997437 7.15677V13.0672C0.997437 15.3869 3.04496 17.2674 5.5707 17.2674H18.4441C20.9699 17.2674 23.0174 15.3869 23.0174 13.0672V7.15677C23.0174 4.83705 20.9699 2.95654 18.4441 2.95654ZM15.3513 10.3995L9.32995 13.0371C9.1695 13.1074 8.98417 12.9999 8.98417 12.8367V7.39674C8.98417 7.23117 9.17438 7.12387 9.33515 7.19871L15.3565 10.0011C15.5355 10.0844 15.5324 10.3202 15.3513 10.3995Z" fill="#757575"/>
</g>
<defs>
<clipPath id="clip0">
<rect width="22.02" height="20.2238" fill="white" transform="translate(0.997437)"/>
</clipPath>
</defs>
</svg>
