<svg width="184" height="34" viewBox="0 0 184 34" fill="none" xmlns="http://www.w3.org/2000/svg">
<g clip-path="url(#clip0)">
<path d="M20.2558 20.2907L16.8768 16.9166L20.2558 13.5333V6.78516L10.1375 16.9166L20.2558 27.0481V20.2907Z" fill="#FF325C"/>
<path d="M-0.000244141 0.00927734V33.8147H33.7615V0.00927734H-0.000244141V0.00927734ZM28.9291 28.9854H4.82287V4.83863H28.9384V28.9854H28.9291Z" fill="#FF325C"/>
<path d="M42.1396 12.011V9.15601C42.2506 9.20236 42.3432 9.23016 42.4265 9.23943C42.6487 9.29505 42.8894 9.32286 43.1486 9.32286C44.0003 9.32286 44.5835 8.98916 44.9075 8.31249L44.9908 8.14565L40.9639 0.34082H44.4817L46.6294 5.20725H46.6942L48.5086 0.34082H52.0265L47.9162 9.07258C47.4163 10.1108 46.8238 10.9079 46.1573 11.4456C45.4907 11.9924 44.6483 12.2613 43.6393 12.2613C43.2134 12.2613 42.8431 12.2242 42.5284 12.1408L42.1396 12.011Z" fill="black"/>
<path d="M54.4609 12.0944V0.34082H57.6455V4.62328H61.9224V0.34082H65.1069V12.0944H61.9224V7.6451H57.6455V12.0944H54.4609Z" fill="black"/>
<path d="M69.042 12.0944V0.34082H72.2265V6.80159L77.2533 0.34082H80.0213V12.0944H76.8367V5.63364L71.81 12.0944H69.042Z" fill="black"/>
<path d="M83.9648 12.0944V0.34082H89.1583C90.445 0.34082 91.4448 0.63744 92.1762 1.23068C92.8982 1.82392 93.2685 2.56547 93.2685 3.44606C93.2685 4.24323 92.9723 4.89209 92.3798 5.39263C92.1576 5.58729 91.8614 5.74488 91.5096 5.88392C91.9447 6.0415 92.3335 6.24542 92.6853 6.50496C93.4722 7.10748 93.861 7.87683 93.861 8.82231C93.861 9.74925 93.4815 10.5279 92.7223 11.1582C91.9632 11.7885 90.9172 12.0944 89.5841 12.0944H83.9648V12.0944ZM87.1494 4.87355H88.9083C89.2416 4.87355 89.51 4.78086 89.7044 4.59547C89.8988 4.41009 90.0007 4.16908 90.0007 3.86319C90.0007 3.5573 89.8988 3.3163 89.7044 3.13091C89.51 2.94552 89.2416 2.85282 88.9083 2.85282H87.1494V4.87355ZM87.1494 9.57313H89.3249C89.6952 9.57313 89.9914 9.4619 90.2321 9.23943C90.4635 9.01697 90.5839 8.73889 90.5839 8.39592C90.5839 8.06222 90.4635 7.78414 90.2321 7.5524C90.0007 7.32994 89.6952 7.2187 89.3249 7.2187H87.1494V9.57313Z" fill="black"/>
<path d="M97.0449 12.0944V0.34082H106.015V3.19579H100.229V4.87355H104.673V7.56167H100.229V9.23943H106.182V12.0944H97.0449Z" fill="black"/>
<path d="M109.45 12.0944V0.34082H114.727C116.014 0.34082 117.06 0.730137 117.874 1.50877C118.689 2.28739 119.087 3.26995 119.087 4.45643C119.087 5.64291 118.68 6.62547 117.874 7.4041C117.06 8.18273 116.014 8.57203 114.727 8.57203H112.635V12.0944H109.45V12.0944ZM112.635 5.71707H114.56C114.931 5.71707 115.245 5.58729 115.505 5.33702C115.764 5.08675 115.903 4.79013 115.903 4.45643C115.903 4.12273 115.773 3.82611 115.505 3.57583C115.236 3.32556 114.931 3.19579 114.56 3.19579H112.635V5.71707Z" fill="black"/>
<path d="M131.409 7.97996L133.334 10.1583C132.954 10.5939 132.519 10.974 132.029 11.2984C130.936 12.0492 129.668 12.42 128.224 12.42C126.354 12.42 124.799 11.8175 123.558 10.6125C122.308 9.40745 121.688 7.94289 121.688 6.20951C121.688 4.47614 122.308 3.00231 123.558 1.80656C124.808 0.601537 126.363 -0.000976562 128.224 -0.000976562C129.631 -0.000976562 130.89 0.379071 131.992 1.13916C132.482 1.48213 132.899 1.86217 133.251 2.26075L131.325 4.43906C131.066 4.16098 130.779 3.9107 130.474 3.68824C129.751 3.18769 129.002 2.93742 128.224 2.93742C127.307 2.93742 126.53 3.25258 125.9 3.8829C125.271 4.51321 124.956 5.29184 124.956 6.20951C124.956 7.12718 125.271 7.90581 125.9 8.53613C126.53 9.16645 127.307 9.4816 128.224 9.4816C128.983 9.4816 129.742 9.23133 130.501 8.73078C130.835 8.51759 131.14 8.26731 131.409 7.97996Z" fill="black"/>
<path d="M136.269 12.0944V0.34082H139.453V6.80159L144.48 0.34082H147.248V12.0944H144.063V5.63364L139.037 12.0944H136.269Z" fill="black"/>
<path d="M153.45 12.0944V3.19579H150.183V0.34082H159.903V3.19579H156.635V12.0944H153.45Z" fill="black"/>
<path d="M162.837 12.0944V0.34082H171.807V3.19579H166.021V4.87355H170.465V7.56167H166.021V9.23943H171.974V12.0944H162.837Z" fill="black"/>
<path d="M177.51 12.0944V3.19579H174.242V0.34082H183.962V3.19579H180.695V12.0944H177.51Z" fill="black"/>
<path d="M55.285 27.2049L58.2289 30.5419C57.6457 31.2093 56.9791 31.7932 56.2293 32.2845C54.5537 33.4339 52.6189 33.9994 50.4156 33.9994C47.5643 33.9994 45.1852 33.0817 43.2782 31.2463C41.3711 29.411 40.4269 27.1678 40.4269 24.5168C40.4269 21.8657 41.3804 19.6225 43.2782 17.7872C45.1852 15.9519 47.5643 15.0342 50.4156 15.0342C52.5633 15.0342 54.4889 15.6182 56.183 16.7768C56.9328 17.3052 57.5716 17.8799 58.1085 18.4917L55.1647 21.8286C54.7759 21.4023 54.3315 21.0129 53.8594 20.67C52.7485 19.9006 51.6098 19.5206 50.4249 19.5206C49.027 19.5206 47.8421 20.0026 46.8793 20.9666C45.9165 21.9306 45.4351 23.1171 45.4351 24.5168C45.4351 25.9164 45.9165 27.1029 46.8793 28.0669C47.8421 29.031 49.027 29.513 50.4249 29.513C51.5821 29.513 52.7485 29.1329 53.9057 28.3636C54.4148 28.0113 54.8777 27.6313 55.285 27.2049Z" fill="black"/>
<path d="M60.3585 33.489V15.5342H65.2279V25.4061L72.9116 15.5342H77.1329V33.489H72.2635V23.6171L64.5799 33.489H60.3585Z" fill="black"/>
<path d="M80.7892 33.489V15.5342H85.6586V22.0784H92.185V15.5342H97.0544V33.489H92.185V26.6945H85.6586V33.489H80.7892Z" fill="black"/>
<path d="M100.721 33.489V15.5342H114.422V19.8908H105.59V22.4584H112.376V26.5648H105.59V29.1324H114.681V33.489H100.721Z" fill="black"/>
<path d="M117.318 33.489V15.5342H125.382C127.344 15.5342 128.946 16.1274 130.186 17.3139C131.427 18.5004 132.047 20.002 132.047 21.8188C132.047 23.6356 131.427 25.128 130.186 26.3238C128.946 27.5102 127.344 28.1035 125.382 28.1035H122.179V33.489H117.318ZM122.179 23.7376H125.122C125.687 23.7376 126.169 23.5429 126.567 23.1629C126.965 22.7736 127.168 22.3286 127.168 21.8188C127.168 21.309 126.965 20.8548 126.567 20.4748C126.169 20.0855 125.687 19.9001 125.122 19.9001H122.179V23.7376Z" fill="black"/>
<path d="M134.677 33.489V15.5342H147.23V20.1503H139.546V33.489H134.677Z" fill="black"/>
<path d="M149.359 33.489V15.5342H154.228V25.4061L161.912 15.5342H166.133V33.489H161.264V23.6171L153.58 33.489H149.359Z" fill="black"/>
<path d="M168.383 33.489L172.095 26.8243C171.512 26.5555 171.003 26.1754 170.558 25.6934C169.531 24.6645 169.022 23.3297 169.022 21.6891C169.022 19.9464 169.633 18.4818 170.864 17.3046C172.095 16.1274 173.66 15.5342 175.548 15.5342H184V33.489H179.131V27.8439H176.446L173.502 33.489H168.383ZM175.817 23.4873H179.149V19.9001H175.817C175.252 19.9001 174.789 20.0669 174.437 20.4099C174.076 20.7528 173.9 21.1792 173.9 21.6891C173.9 22.1989 174.076 22.6253 174.437 22.9682C174.789 23.3112 175.252 23.4873 175.817 23.4873Z" fill="black"/>
</g>
<defs>
<clipPath id="clip0">
<rect width="184" height="34.0003" fill="white" transform="translate(-0.000244141 -0.000976562)"/>
</clipPath>
</defs>
</svg>
